<?xml version="1.0" encoding="UTF-8"?><svg id="Capa_1" xmlns="http://www.w3.org/2000/svg" viewBox="0 0 61 59.5"><defs><style>.cls-1{fill:#fdfdfd;}.cls-2{fill:#fefefe;}.cls-3{fill:#fcfcfc;}</style></defs><path d="M15.62,58.12c-2.54-.07-5.38-1.3-7.91-3.28-3.16-2.48-5.48-5.55-6.26-9.57-.56-2.89-.04-5.57,2.09-7.77,1.03-1.06,2.38-1.55,3.76-1.93,1.29-.36,2.59-.67,3.88-1.04,1.79-.52,2.93-1.61,3.24-3.55,.29-1.81,.7-3.62,1.64-5.24,1.6-2.75,3.85-4.53,7.1-4.82,.94-.08,1.86,0,2.76,.29,.56,.17,.96,.49,1.07,1.09,.11,.61-.11,1.09-.59,1.49-1.19,.97-2.4,1.92-3.5,3.01-.77,.76-.67,2.11,.21,2.73,.42,.29,.83,.43,1.31-.04,5.84-5.65,11.71-11.29,17.57-16.92,.55-.53,1.05-1.11,1.65-1.56,.87-.65,1.23-1.48,1.12-2.51-.17-1.58,.53-2.36,2-2.92,3.14-1.21,6.19-2.64,9.29-3.98,1.58-.68,3.21-.05,3.76,1.44,.56,1.53-.21,3.04-1.86,3.57-.92,.3-1.85,.59-2.79,.84-.97,.25-1.59,.84-1.88,1.78-.16,.52-.29,1.04-.45,1.56-.28,.86-.85,1.45-1.75,1.54-1.1,.11-1.86,.57-2.58,1.47-1.17,1.47-2.57,2.76-3.87,4.13-5.15,5.4-10.29,10.8-15.46,16.18-.38,.39-.42,.72-.28,1.2,.59,1.95,1.34,2.16,2.76,.73,.26-.26,.49-.55,.75-.81,.84-.84,2.13-.84,2.97,0,1.11,1.12,1.42,2.45,.88,3.94-.46,1.28-1.34,2.27-2.33,3.16-1.18,1.07-2.51,1.92-3.95,2.59-2.5,1.16-4.18,3.01-4.93,5.69-.18,.65-.38,1.29-.61,1.92-1.35,3.64-4.25,5.64-8.83,5.61Z"/><path class="cls-2" d="M29.45,40.09c-.58,.8-1.22,1.25-1.94,1.59-.45,.21-.92,.37-1.4,.5-2.78,.74-4.55,2.53-5.49,5.21-.41,1.16-.77,2.34-1.3,3.46-.29,.61-.63,1.19-1.16,1.63-.19,.16-.41,.35-.7,.19-.24-.13-.31-.35-.3-.6,.03-.84-.25-1.58-.73-2.25-.17-.24-.12-.41-.03-.65,.44-1.14,.23-2.17-.64-3.04-1.06-1.06-2.12-2.11-3.17-3.18-.83-.85-1.8-1.2-2.94-.8-.48,.17-.4-.19-.43-.4-.23-1.29,1.2-3.13,2.52-2.96,2.29,.3,4.06-.71,5.61-2.28,.78-.79,1.2-1.69,.95-2.82-.02-.08-.02-.17-.03-.26-.12-.86,.12-1.35,.74-1.49,.54-.13,1.18,.32,1.46,.97,.12,.28-.05,.39-.19,.55-.77,.82-.76,1.37,.03,2.17,.92,.92,1.84,1.84,2.76,2.76,.46,.46,.97,.65,1.58,.36,.17-.08,.29-.12,.46,.02,1.21,1.03,2.58,1.63,4.36,1.31Z"/><path class="cls-2" d="M10.5,43.27c.44,.02,.77,.21,1.05,.5,1.1,1.1,2.21,2.2,3.3,3.31,.64,.65,.64,1.43,.05,2.01-.59,.57-1.31,.57-1.95-.05-1.14-1.12-2.26-2.26-3.39-3.4-.42-.43-.54-.93-.29-1.49,.24-.54,.69-.81,1.24-.87Z"/><path class="cls-3" d="M36.1,25.22c0,.24-.11,.43-.32,.53-.25,.13-.52,.13-.73-.07-.76-.74-1.51-1.49-2.24-2.26-.24-.25-.2-.57,.04-.82,.26-.28,.6-.31,.87-.05,.77,.74,1.5,1.5,2.25,2.25,.11,.12,.13,.27,.13,.42Z"/><path class="cls-1" d="M32.01,29.28c-.03,.26-.12,.47-.35,.6-.24,.13-.48,.13-.66-.04-.79-.77-1.57-1.54-2.33-2.34-.23-.24-.15-.53,.06-.76,.21-.23,.5-.36,.75-.15,.89,.75,1.71,1.58,2.46,2.47,.05,.06,.05,.16,.08,.23Z"/><path class="cls-3" d="M37.41,18.28c.21,.04,.38,.12,.52,.27,.65,.66,1.31,1.31,1.97,1.97,.32,.31,.45,.66,.11,1.02-.34,.35-.69,.24-1.01-.08-.67-.67-1.34-1.34-2.01-2.02-.21-.21-.32-.46-.17-.76,.13-.26,.34-.37,.6-.4Z"/><path class="cls-1" d="M27.9,33.41c-.04,.29-.15,.49-.38,.6-.24,.12-.49,.1-.67-.07-.77-.75-1.54-1.51-2.28-2.29-.23-.24-.18-.57,.07-.82,.24-.24,.56-.31,.81-.07,.79,.76,1.56,1.55,2.32,2.33,.08,.08,.09,.23,.12,.32Z"/><path class="cls-1" d="M45.55,10.12c.26,0,.44,.13,.61,.31,.62,.63,1.25,1.26,1.88,1.89,.34,.34,.47,.7,.09,1.07-.36,.35-.71,.17-1.01-.15-.65-.66-1.31-1.32-1.97-1.98-.22-.22-.31-.47-.17-.77,.11-.24,.3-.36,.57-.37Z"/><path class="cls-1" d="M41.51,14.2c.21-.02,.37,.13,.53,.28,.64,.64,1.29,1.29,1.93,1.93,.31,.31,.48,.66,.13,1.02-.37,.38-.73,.23-1.07-.11-.64-.65-1.28-1.29-1.93-1.93-.24-.24-.33-.51-.19-.82,.1-.23,.3-.36,.6-.36Z"/></svg>