<?xml version="1.0" encoding="UTF-8"?><svg id="Capa_1" xmlns="http://www.w3.org/2000/svg" viewBox="0 0 55 54.5"><path d="M47.86,41.54c-1.03,0-2.01,.25-2.87,.7,.35-.35,.61-.61,.7-.71,3.15-3.21,3.15-7.96-.01-11.16-.79-.8-1.57-1.59-2.38-2.37-.21-.21-.2-.32,0-.52,.88-.85,1.76-1.71,2.59-2.6,1.63-1.74,2.34-3.81,2.09-6.2-.19-1.82-.97-3.35-2.23-4.66-.16-.17-.76-.77-1.47-1.48,.99,.7,2.2,1.12,3.51,1.12,3.42,.01,6.21-2.77,6.2-6.19,0-3.38-2.76-6.13-6.14-6.14-3.38-.01-6.16,2.72-6.19,6.09-.01,1.37,.42,2.63,1.16,3.67-.76-.75-1.4-1.39-1.56-1.54-3.05-2.89-7.76-2.87-10.77,.05-.85,.83-1.69,1.67-2.52,2.52-.22,.23-.34,.23-.56,0-.83-.85-1.66-1.7-2.52-2.52-1.98-1.86-4.31-2.56-6.98-2.04-1.57,.3-2.88,1.08-4.01,2.19-.14,.14-.58,.58-1.13,1.12,.64-.98,1.02-2.14,1.01-3.4,0-3.38-2.76-6.13-6.14-6.14-3.38-.01-6.16,2.72-6.19,6.09-.03,3.43,2.72,6.24,6.13,6.25,1.26,0,2.43-.37,3.4-1.01-.64,.64-1.17,1.17-1.33,1.33-3.11,3.19-3.11,7.94,.03,11.11,.79,.79,1.57,1.59,2.38,2.37,.24,.23,.22,.35,0,.56-.76,.73-1.49,1.48-2.23,2.22-3.29,3.31-3.27,8.12,.02,11.43,.07,.07,.27,.27,.52,.53-.83-.42-1.75-.66-2.74-.66-3.38-.01-6.16,2.72-6.19,6.09-.03,3.43,2.72,6.24,6.13,6.25,3.42,.01,6.21-2.77,6.2-6.19,0-.99-.24-1.91-.66-2.74,.4,.4,.72,.71,.83,.83,3.17,3.09,7.94,3.08,11.08-.03,.8-.79,1.6-1.57,2.37-2.38,.22-.23,.34-.23,.56,0,.84,.87,1.69,1.72,2.56,2.56,2.9,2.79,7.37,2.92,10.43,.29,.18-.15,.74-.7,1.41-1.36-.44,.83-.7,1.78-.71,2.78-.03,3.43,2.72,6.24,6.13,6.25,3.42,.01,6.21-2.77,6.2-6.19,0-3.38-2.76-6.13-6.14-6.14Zm0-38.83c2.66,.01,4.79,2.19,4.77,4.86-.03,2.62-2.19,4.74-4.82,4.73-2.62,0-4.76-2.16-4.77-4.78,0-2.66,2.16-4.82,4.82-4.81ZM28.75,13.33c1.01-.98,1.99-1.98,2.99-2.97,1.11-1.1,2.45-1.65,4.07-1.69,1.37,.05,2.68,.45,3.71,1.46,1.95,1.9,3.9,3.81,5.78,5.79,1.96,2.07,1.97,5.33,.07,7.45-1.05,1.17-2.21,2.24-3.3,3.37-.26,.27-.39,.18-.59-.03-.75-.77-2.64-2.67-3.41-3.41-.26-.24-.51-.64-.39-.95,.57-.57,1.71-2.85,0-4.56-1.14-1.14-3.22-1.44-4.56,0-.26,.28-.75-.19-1-.45-.73-.76-2.6-2.64-3.36-3.37-.26-.25-.26-.39,0-.64Zm-21.15-1.03c-2.62,0-4.76-2.16-4.77-4.78,0-2.66,2.16-4.82,4.82-4.81,2.66,.01,4.79,2.19,4.77,4.86-.03,2.62-2.19,4.74-4.82,4.73Zm2.88,11.19c-2.34-2.31-2.35-5.51,0-7.81,1.63-1.6,3.28-3.18,4.92-4.78,1.11-1.09,2.45-1.65,4.03-1.69,1.36,.05,2.61,.44,3.61,1.36,1.09,1.01,2.13,2.07,3.22,3.08,.32,.29,.1,.42-.09,.6-1.48,1.44-2.95,2.89-4.46,4.31-.34,.32-.34,.49,0,.77,.33,.26,.62,.57,.91,.88,.7,.75,.69,1.83,0,2.51-.7,.68-1.81,.68-2.59,0-.34-.31-.69-.62-.99-.96-.24-.27-.39-.21-.62,.01-1.49,1.46-2.99,2.91-4.48,4.37-.28,.28-.44,.34-.75,.02-.88-.9-1.81-1.76-2.71-2.65Zm-2.88,29.02c-2.62,0-4.76-2.16-4.77-4.78,0-2.66,2.16-4.82,4.82-4.81,2.66,.01,4.79,2.19,4.77,4.86-.03,2.62-2.19,4.74-4.82,4.73Zm18.62-10.31c-.98,.95-1.93,1.93-2.9,2.89-1.08,1.07-2.38,1.6-3.95,1.64-1.33-.04-2.6-.43-3.61-1.41-1.89-1.85-3.79-3.7-5.61-5.62-1.9-2.01-1.91-5.17-.07-7.23,1.02-1.13,2.15-2.17,3.21-3.27,.25-.26,.37-.17,.58,.03,.72,.74,2.56,2.59,3.31,3.31,.25,.24,.5,.62,.38,.92-.55,.55-1.66,2.76,0,4.42,1.11,1.11,3.12,1.4,4.42,0,.25-.27,.73,.18,.97,.43,.7,.74,2.53,2.56,3.26,3.27,.25,.24,.25,.38,0,.62Zm1.18-2.12c-1.44-1.47-2.92-2.9-4.35-4.38-.32-.33-.5-.32-.77,.02-.27,.32-.58,.61-.89,.89-.76,.69-1.85,.69-2.54,0-.69-.69-.69-1.78,0-2.54,.04-.04,.09-.08,.13-.13,.35-.4,1.04-.72,1.01-1.16-.02-.39-.65-.75-1.01-1.12-1.2-1.2-2.39-2.41-3.61-3.6-.29-.28-.28-.43,0-.7,.73-.69,2.5-2.47,3.19-3.19,.21-.22,.59-.6,.88-.5,1.82,1.27,2.51,1.38,4.29,0,1.43-1.83,.54-3.22,0-4.29-.08-.22,.19-.58,.4-.78,.78-.75,2.62-2.58,3.36-3.36,.26-.27,.38-.13,.56,.06,1.45,1.46,2.93,2.9,4.36,4.38,.36,.37,.56,.36,.86-.02,.24-.29,.52-.55,.8-.81,.78-.73,1.88-.74,2.58-.03,.7,.71,.69,1.8-.05,2.58-.3,.32-.6,.64-.94,.93-.27,.23-.24,.36,0,.6,1.48,1.46,2.94,2.94,4.43,4.39,.33,.32,.32,.48,0,.78-.69,.64-2.42,2.38-3.07,3.06-.26,.28-.57,.7-.97,.55-.65-.72-2.68-1.61-4.29-.54-1.07,1.07-1.26,3.59,0,4.83,.27,.26-.28,.7-.52,.93-.71,.68-2.48,2.44-3.15,3.15-.27,.29-.42,.28-.7,0Zm12.71,4.42c-1.11,1.09-2.45,1.65-4.03,1.69-1.36-.05-2.61-.44-3.61-1.36-1.09-1.01-2.13-2.07-3.22-3.08-.32-.29-.1-.42,.09-.6,1.48-1.44,2.95-2.89,4.46-4.31,.34-.32,.34-.49,0-.77-.33-.26-.62-.57-.91-.88-.7-.75-.69-1.83,0-2.51,.7-.68,1.81-.68,2.59,0,.34,.31,.69,.62,.99,.96,.24,.27,.39,.21,.62-.01,1.49-1.46,2.99-2.91,4.48-4.37,.28-.28,.44-.34,.75-.02,.88,.9,1.81,1.76,2.71,2.65,2.34,2.31,2.35,5.51,0,7.81-1.63,1.6-3.28,3.18-4.92,4.78Zm7.7,8.01c-2.62,0-4.76-2.16-4.77-4.78,0-2.66,2.16-4.82,4.82-4.81,2.66,.01,4.79,2.19,4.77,4.86-.03,2.62-2.19,4.74-4.82,4.73Z"/></svg>