<?xml version="1.0" encoding="UTF-8"?><svg id="Capa_1" xmlns="http://www.w3.org/2000/svg" viewBox="0 0 59.5 59.5"><path d="M54.21,57.06H6.08c-2.04,0-4.08,0-4.08-2.79,0-16.47,0-31.75,0-48.22,0-2.04,2.04-3.96,3.53-3.97,16.88-.11,31.97,0,47.95,0,2.08,0,3.52,1.44,3.52,3.52,0,15.98,0,31.96-.02,47.94,.12,3.53-1.84,3.22-2.77,3.53Zm-16.89-12.92c-.01-.13,0-.18-.02-.23-2.83-9.13-5.67-18.26-8.49-27.39-.11-.35-.3-.37-.59-.37-2.49,0-4.98,0-7.47,0-.12,0-.24,.02-.38,.03-2.85,9.31-5.68,18.59-8.52,27.87,.1,.05,.13,.08,.16,.08,2.02,0,4.05,.01,6.07,0,.13,0,.33-.18,.38-.32,.16-.45,.27-.92,.4-1.39,.5-1.81,1-3.61,1.52-5.45h.55c2.31,0,4.62,.01,6.93-.01,.41,0,.58,.12,.69,.52,.6,2.08,1.23,4.14,1.87,6.21,.06,.18,.26,.44,.4,.44,2.15,.03,4.29,.02,6.49,.02Zm3.38-20.26v20.26h.56c1.7,0,3.4-.02,5.1,.01,.48,0,.64-.11,.63-.62-.02-6.37-.01-12.73-.01-19.1,0-.17,0-.35,0-.56h-6.28Zm3.05-2.54c1.95,.02,3.37-1.27,3.41-3.08,.04-1.85-1.35-3.21-3.31-3.25-1.95-.04-3.36,1.29-3.37,3.17,0,1.83,1.35,3.14,3.26,3.16Z"/><path d="M24.29,21.38c1.04,3.69,2.09,7.42,3.14,11.19h-6.08c.99-3.77,1.97-7.51,2.94-11.19Z"/></svg>