<?xml version="1.0" encoding="UTF-8"?><svg id="Capa_1" xmlns="http://www.w3.org/2000/svg" viewBox="0 0 61 59.5"><defs><style>.cls-1{fill:#010101;}</style></defs><path d="M1.02,3.8C2.07,1.4,3.42,.71,5.93,1.36c2.19,.57,4.21,1.51,5.93,3.01,.54,.47,1.11,.68,1.84,.69,3.08,.05,5.89,.93,8.52,2.57,5.6,3.47,10.19,7.9,13.6,13.55,1.02,1.69,1.64,3.55,2.42,5.34,1.21,2.78,2.61,5.46,3.89,8.2,.41,.88,1.01,1.48,1.99,1.84,4.17,1.51,7.67,4.11,10.97,7,.7,.61,1.16,1.44,1.77,2.12,.28,.31,.09,.46-.26,.58-1.4,.48-2.85,.69-4.31,.85-1.3,.14-2.49,.7-3.81,.85,.21,.66,.67,1.07,1.16,1.46,.71,.56,1.49,1.01,2.28,1.46,1.9,1.07,3.47,2.52,4.84,4.19,.23,.28,.44,.58,.72,.79,.69,.54,1.08,1.29,1.45,2.04v.11c-.22-.02-.38-.16-.53-.3-1.88-1.75-4.05-3.03-6.37-4.1-2.2-1.02-4.2-2.34-5.74-4.28-.49-.61-.79-1.32-1.11-2.02-.18-.39,.17-.61,.47-.7,1.51-.5,3-1.1,4.61-1.27,1.2-.13,2.4-.21,3.61-.19,.14,0,.34,.08,.41-.07,.08-.18-.1-.31-.21-.42-.23-.22-.47-.44-.73-.62-1.66-1.14-3.32-2.27-5-3.39-1.44-.97-3.08-1.52-4.73-1.92-1.89-.46-3.11-1.53-3.89-3.25-1.6-3.5-3.32-6.95-4.78-10.51-1.32-3.2-3.29-6-5.58-8.57-3.19-3.57-6.92-6.42-11.34-8.31-1.25-.53-2.53-.85-3.88-.85-.76,0-1.5-.17-2.25-.16-.49,0-.85-.36-1.2-.68-1.71-1.52-3.79-2.34-5.92-3.05-.59-.2-1.2-.16-1.63,.3-.46,.5-.33,1.11-.08,1.7,.34,.81,.87,1.49,1.4,2.18,1.24,1.61,2.55,3.18,3.24,5.13,.55,1.56,1.04,3.14,1.59,4.7,.61,1.73,1.39,3.37,2.79,4.64,.58,.54,.74,1.22,.55,2.02-.22,.9-.59,1.75-.86,2.62-1.29,4.14-1.12,8.2,.76,12.14,.26,.55,.63,1.03,1.19,1.32,.37,.19,.57,.18,.62-.31,.13-1.25,.28-2.51,.49-3.75,.29-1.71,1.23-3.05,2.32-4.32,.16-.19,.26-.11,.32,.04,.12,.27,.2,.56,.31,.84,1.98,4.92,4.47,9.53,8.09,13.47,.15,.17,.34,.3,.51,.45,.16,.15,.4,.22,.48,.51-.26,0-.44-.15-.57-.28-2.14-2.09-4.65-3.78-6.5-6.18-.85-1.1-1.32-2.4-1.98-3.6-.12-.21-.22-.43-.46-.64-.15,.89-.31,1.77-.45,2.66-.09,.56-.13,1.12-.3,1.66-.51,1.66-2.13,2.26-3.58,1.3-1.07-.71-1.76-1.75-2.3-2.88-1.24-2.59-1.59-5.35-1.46-8.2,.09-2.15,.79-4.17,1.25-6.24,.03-.13,.08-.25,.13-.37,.33-.82,.3-.87-.3-1.5-1.16-1.22-1.86-2.73-2.48-4.26-.71-1.74-1.36-3.5-1.84-5.32-.22-.84-.69-1.54-1.2-2.22-.69-.92-1.37-1.84-2.09-2.74-.73-.92-1.26-1.94-1.66-3.03v-1.36Z"/><path class="cls-1" d="M13.77,10.91c.56-.1,.9,.3,1.21,.61,.97,.96,.99,1.91,.13,2.92-.15,.18-.29,.28-.43-.05-.42-1.03-.99-1.97-1.75-2.79-.42-.45-.37-.49,.23-.6,.2-.04,.41-.06,.61-.08Z"/></svg>