<?xml version="1.0" encoding="UTF-8"?><svg id="uuid-bfc07e06-4eff-4a9b-ab2f-62a6156a4e04" xmlns="http://www.w3.org/2000/svg" viewBox="0 0 60 60"><defs><style>.uuid-4915f7d8-00a0-4545-a75d-41c3921ecf3c{fill:#030104;}</style></defs><path class="uuid-4915f7d8-00a0-4545-a75d-41c3921ecf3c" d="M58.07,5.07c.03-1.67-1.07-3.06-3.05-3.04-17.03-.03-33.03-.03-49.88,0-2.14-.03-3.04,1.63-3.14,2.79V55.16c.34,1.83,1.47,2.84,3.15,2.84,16.63,0,33.26,0,49.89,0,1.96,0,3.04-2.1,3.04-3.42-.01-16.39-.01-49.4,0-49.51Zm-26.05,22.62c-1.12,1.97-2.84,3.23-4.91,4.06-2.75,1.1-5.63,1.26-8.54,1.04-.42-.03-.48,.07-.48,.44,.01,3.35,0,6.71,.02,10.06,0,.41-.1,.51-.51,.5-1.97-.02-3.94-.03-5.91,0-.45,0-.52-.15-.52-.55,.01-4.9,0-9.81,0-14.71s0-9.81-.01-14.71c0-.4,.11-.52,.49-.58,3.37-.47,6.75-.62,10.14-.52,2.45,.07,4.86,.42,7.05,1.66,2.63,1.49,4.06,3.81,4.41,6.77,.27,2.29-.1,4.5-1.25,6.54Zm14.63,15.44c-2.36,1.09-4.85,1.22-7.38,1.03-1.79-.13-3.53-.51-5.17-1.27-.29-.13-.4-.25-.3-.61,.4-1.51,.76-3.03,1.14-4.59,1.4,.78,2.85,1.24,4.36,1.53,1.08,.21,2.17,.28,3.25-.04,.71-.21,1.24-.62,1.35-1.4,.12-.81-.22-1.42-.92-1.83-1.12-.66-2.39-.97-3.57-1.48-1.45-.63-2.79-1.41-3.83-2.64-1.87-2.2-1.58-5.3-.21-7.33,1.29-1.91,3.17-2.93,5.37-3.35,2.91-.56,5.76-.25,8.53,.83,.28,.11,.44,.19,.34,.57-.37,1.33-.72,2.67-1.04,4.01-.09,.36-.2,.37-.5,.23-1.53-.73-3.14-1.16-4.85-1.08-.52,.02-1.01,.13-1.46,.4-.99,.6-1.09,1.82-.21,2.57,.46,.39,1.02,.63,1.58,.85,1.32,.52,2.67,.95,3.91,1.65,1.64,.93,2.89,2.18,3.38,4.08,.84,3.29-.66,6.43-3.77,7.86Z"/><path class="uuid-4915f7d8-00a0-4545-a75d-41c3921ecf3c" d="M23.57,18.38c-1.64-.6-3.33-.46-5.02-.22-.35,.05-.45,.17-.44,.51,.02,1.38,0,2.77,0,4.15s0,2.73,0,4.1c0,.3,.05,.44,.4,.48,1.36,.15,2.72,.16,4.07-.13,2.34-.52,3.78-2.19,3.86-4.56,.07-2.14-.86-3.59-2.87-4.33Z"/></svg>