<?xml version="1.0" encoding="UTF-8"?><svg id="uuid-d98d41f0-6147-4f97-96d2-e7d3ed8d10a1" xmlns="http://www.w3.org/2000/svg" viewBox="0 0 557 179.69"><defs><style>.uuid-6cfb64f6-9464-42d5-b71d-f8550cdee6f0{fill:#fdfdfd;}.uuid-3f84aae5-e6bd-4bdf-81af-845381bd8608{fill:#030104;}.uuid-5d3fbcf9-9d8b-4013-ac7d-12ead6a728bb{fill:#010101;}.uuid-d6013b7b-e285-45b6-b1a5-b187f6514d47{fill:#fefefe;}.uuid-23b368c7-3a08-4f35-b08e-9c30e1773a51{fill:#fcfcfc;}</style></defs><g><path d="M458.62,51.84c.12,.66,.25,1.27,.34,1.88,.17,1.14-.64,2.12-1.8,2.12-7.87,0-15.73,0-23.6,0-1.12,0-1.91-.86-1.79-2.01,.28-2.79,1.38-5.24,3.2-7.36,1.84-2.14,3.52-3.16,7.11-4.41-1.74-1.26-2.7-2.94-2.67-5.09,.02-1.66,.66-3.08,1.88-4.23,2.37-2.25,6.11-2.15,8.37,.19,2.09,2.17,2.64,6.42-.97,9.14,.35,.11,.69,.21,1.02,.33,.19,.07,.32,.02,.44-.13,1.86-2.11,4.16-3.5,6.96-4.23-1.75-1.31-2.7-2.96-2.67-5.1,.03-1.67,.66-3.09,1.87-4.23,2.41-2.26,6.13-2.12,8.41,.26,2.03,2.12,2.56,6.37-1.02,9.08,.5,.16,.98,.29,1.45,.47,1.99,.75,3.74,1.88,5.17,3.46,.35,.39,.65,.56,1.14,.3,.18-.1,.39-.12,.66-.2-1.86-1.38-2.82-3.17-2.65-5.47,.12-1.62,.81-2.97,2.03-4.04,2.5-2.19,6.31-1.89,8.46,.69,2.13,2.56,1.9,6.52-1.28,8.8,.5,.17,.97,.3,1.42,.48,4.98,1.97,7.92,5.6,8.86,10.87,.29,1.64-.8,2.47-2.14,2.46-7.62-.05-15.24-.02-22.86-.02-1.63,0-2.34-.82-2.11-2.44,.04-.26,.08-.52,.13-.78q.16-.79-.67-.79c-.89,0-1.77,0-2.67,0Z"/><path d="M455.35,5.44c5.37,0,10.74,0,16.11,0,2.03,0,3.16,1.12,3.17,3.15,0,.78,.04,1.55-.01,2.33-.03,.5,.15,.57,.6,.57,2.69-.02,5.37-.01,8.06-.01,1.77,0,2.85,1.08,2.85,2.87,0,2.63,0,5.26,0,7.89,0,1.82-1.06,2.87-2.89,2.87-.43,0-.87,.04-1.3-.01-.5-.06-.6,.15-.57,.6,.04,.58,0,1.17,.01,1.76,.02,.58-.14,1.05-.71,1.29-.58,.24-1.01-.01-1.42-.41-.99-.97-2-1.91-2.97-2.88-.26-.26-.53-.35-.9-.35-6.94,0-13.88-.03-20.82,.03-1.9,.02-3.12-1.29-3.01-3.01,.03-.5,.22-1.17-.08-1.47-.3-.31-3.42-.28-4.06-.02-.63,.26-1.09,.96-1.62,1.47-.75,.72-1.5,1.44-2.25,2.17-.41,.4-.88,.61-1.43,.35-.53-.24-.71-.68-.7-1.25,.02-.81,0-1.63,.01-2.44,0-.3-.08-.39-.38-.39-.68,.02-1.36,.01-2.04,0-1.72-.02-2.91-1.21-2.91-2.94,0-3.08,0-6.17,0-9.25,0-1.73,1.2-2.91,2.93-2.92,5.45,0,10.89,0,16.34,0Z"/></g><path d="M550.86,43.23c-1.03,0-2.01,.25-2.87,.7,.35-.35,.61-.61,.7-.71,3.15-3.21,3.15-7.96-.01-11.16-.79-.8-1.57-1.59-2.38-2.37-.21-.21-.2-.32,0-.52,.88-.85,1.76-1.71,2.59-2.6,1.63-1.74,2.34-3.81,2.09-6.2-.19-1.82-.97-3.35-2.23-4.66-.16-.17-.76-.77-1.47-1.48,.99,.7,2.2,1.12,3.51,1.12,3.42,.01,6.21-2.77,6.2-6.19,0-3.38-2.76-6.13-6.14-6.14-3.38-.01-6.16,2.72-6.19,6.09-.01,1.37,.42,2.63,1.16,3.67-.76-.75-1.4-1.39-1.56-1.54-3.05-2.89-7.76-2.87-10.77,.05-.85,.83-1.69,1.67-2.52,2.52-.22,.23-.34,.23-.56,0-.83-.85-1.66-1.7-2.52-2.52-1.98-1.86-4.31-2.56-6.98-2.04-1.57,.3-2.88,1.08-4.01,2.19-.14,.14-.58,.58-1.13,1.12,.64-.98,1.02-2.14,1.01-3.4,0-3.38-2.76-6.13-6.14-6.14-3.38-.01-6.16,2.72-6.19,6.09-.03,3.43,2.72,6.24,6.13,6.25,1.26,0,2.43-.37,3.4-1.01-.64,.64-1.17,1.17-1.33,1.33-3.11,3.19-3.11,7.94,.03,11.11,.79,.79,1.57,1.59,2.38,2.37,.24,.23,.22,.35,0,.56-.76,.73-1.49,1.48-2.23,2.22-3.29,3.31-3.27,8.12,.02,11.43,.07,.07,.27,.27,.52,.53-.83-.42-1.75-.66-2.74-.66-3.38-.01-6.16,2.72-6.19,6.09-.03,3.43,2.72,6.24,6.13,6.25,3.42,.01,6.21-2.77,6.2-6.19,0-.99-.24-1.91-.66-2.74,.4,.4,.72,.71,.83,.83,3.17,3.09,7.94,3.08,11.08-.03,.8-.79,1.6-1.57,2.37-2.38,.22-.23,.34-.23,.56,0,.84,.87,1.69,1.72,2.56,2.56,2.9,2.79,7.37,2.92,10.43,.29,.18-.15,.74-.7,1.41-1.36-.44,.83-.7,1.78-.71,2.78-.03,3.43,2.72,6.24,6.13,6.25,3.42,.01,6.21-2.77,6.2-6.19,0-3.38-2.76-6.13-6.14-6.14Zm0-38.83c2.66,.01,4.79,2.19,4.77,4.86-.03,2.62-2.19,4.74-4.82,4.73-2.62,0-4.76-2.16-4.77-4.78,0-2.66,2.16-4.82,4.82-4.81Zm-19.11,10.62c1.01-.98,1.99-1.98,2.99-2.97,1.11-1.1,2.45-1.65,4.07-1.69,1.37,.05,2.68,.45,3.71,1.46,1.95,1.9,3.9,3.81,5.78,5.79,1.96,2.07,1.97,5.33,.07,7.45-1.05,1.17-2.21,2.24-3.3,3.37-.26,.27-.39,.18-.59-.03-.75-.77-2.64-2.67-3.41-3.41-.26-.24-.51-.64-.39-.95,.57-.57,1.71-2.85,0-4.56-1.14-1.14-3.22-1.44-4.56,0-.26,.28-.75-.19-1-.45-.73-.76-2.6-2.64-3.36-3.37-.26-.25-.26-.39,0-.64Zm-21.15-1.03c-2.62,0-4.76-2.16-4.77-4.78,0-2.66,2.16-4.82,4.82-4.81,2.66,.01,4.79,2.19,4.77,4.86-.03,2.62-2.19,4.74-4.82,4.73Zm2.88,11.19c-2.34-2.31-2.35-5.51,0-7.81,1.63-1.6,3.28-3.18,4.92-4.78,1.11-1.09,2.45-1.65,4.03-1.69,1.36,.05,2.61,.44,3.61,1.36,1.09,1.01,2.13,2.07,3.22,3.08,.32,.29,.1,.42-.09,.6-1.48,1.44-2.95,2.89-4.46,4.31-.34,.32-.34,.49,0,.77,.33,.26,.62,.57,.91,.88,.7,.75,.69,1.83,0,2.51-.7,.68-1.81,.68-2.59,0-.34-.31-.69-.62-.99-.96-.24-.27-.39-.21-.62,.01-1.49,1.46-2.99,2.91-4.48,4.37-.28,.28-.44,.34-.75,.02-.88-.9-1.81-1.76-2.71-2.65Zm-2.88,29.02c-2.62,0-4.76-2.16-4.77-4.78,0-2.66,2.16-4.82,4.82-4.81,2.66,.01,4.79,2.19,4.77,4.86-.03,2.62-2.19,4.74-4.82,4.73Zm18.62-10.31c-.98,.95-1.93,1.93-2.9,2.89-1.08,1.07-2.38,1.6-3.95,1.64-1.33-.04-2.6-.43-3.61-1.41-1.89-1.85-3.79-3.7-5.61-5.62-1.9-2.01-1.91-5.17-.07-7.23,1.02-1.13,2.15-2.17,3.21-3.27,.25-.26,.37-.17,.58,.03,.72,.74,2.56,2.59,3.31,3.31,.25,.24,.5,.62,.38,.92-.55,.55-1.66,2.76,0,4.42,1.11,1.11,3.12,1.4,4.42,0,.25-.27,.73,.18,.97,.43,.7,.74,2.53,2.56,3.26,3.27,.25,.24,.25,.38,0,.62Zm1.18-2.12c-1.44-1.47-2.92-2.9-4.35-4.38-.32-.33-.5-.32-.77,.02-.27,.32-.58,.61-.89,.89-.76,.69-1.85,.69-2.54,0-.69-.69-.69-1.78,0-2.54,.04-.04,.09-.08,.13-.13,.35-.4,1.04-.72,1.01-1.16-.02-.39-.65-.75-1.01-1.12-1.2-1.2-2.39-2.41-3.61-3.6-.29-.28-.28-.43,0-.7,.73-.69,2.5-2.47,3.19-3.19,.21-.22,.59-.6,.88-.5,1.82,1.27,2.51,1.38,4.29,0,1.43-1.83,.54-3.22,0-4.29-.08-.22,.19-.58,.4-.78,.78-.75,2.62-2.58,3.36-3.36,.26-.27,.38-.13,.56,.06,1.45,1.46,2.93,2.9,4.36,4.38,.36,.37,.56,.36,.86-.02,.24-.29,.52-.55,.8-.81,.78-.73,1.88-.74,2.58-.03,.7,.71,.69,1.8-.05,2.58-.3,.32-.6,.64-.94,.93-.27,.23-.24,.36,0,.6,1.48,1.46,2.94,2.94,4.43,4.39,.33,.32,.32,.48,0,.78-.69,.64-2.42,2.38-3.07,3.06-.26,.28-.57,.7-.97,.55-.65-.72-2.68-1.61-4.29-.54-1.07,1.07-1.26,3.59,0,4.83,.27,.26-.28,.7-.52,.93-.71,.68-2.48,2.44-3.15,3.15-.27,.29-.42,.28-.7,0Zm12.71,4.42c-1.11,1.09-2.45,1.65-4.03,1.69-1.36-.05-2.61-.44-3.61-1.36-1.09-1.01-2.13-2.07-3.22-3.08-.32-.29-.1-.42,.09-.6,1.48-1.44,2.95-2.89,4.46-4.31,.34-.32,.34-.49,0-.77-.33-.26-.62-.57-.91-.88-.7-.75-.69-1.83,0-2.51,.7-.68,1.81-.68,2.59,0,.34,.31,.69,.62,.99,.96,.24,.27,.39,.21,.62-.01,1.49-1.46,2.99-2.91,4.48-4.37,.28-.28,.44-.34,.75-.02,.88,.9,1.81,1.76,2.71,2.65,2.34,2.31,2.35,5.51,0,7.81-1.63,1.6-3.28,3.18-4.92,4.78Zm7.7,8.01c-2.62,0-4.76-2.16-4.77-4.78,0-2.66,2.16-4.82,4.82-4.81,2.66,.01,4.79,2.19,4.77,4.86-.03,2.62-2.19,4.74-4.82,4.73Z"/><g><path d="M371.62,56.81c-2.54-.07-5.38-1.3-7.91-3.28-3.16-2.48-5.48-5.55-6.26-9.57-.56-2.89-.04-5.57,2.09-7.77,1.03-1.06,2.38-1.55,3.76-1.93,1.29-.36,2.59-.67,3.88-1.04,1.79-.52,2.93-1.61,3.24-3.55,.29-1.81,.7-3.62,1.64-5.24,1.6-2.75,3.85-4.53,7.1-4.82,.94-.08,1.86,0,2.76,.29,.56,.17,.96,.49,1.07,1.09,.11,.61-.11,1.09-.59,1.49-1.19,.97-2.4,1.92-3.5,3.01-.77,.76-.67,2.11,.21,2.73,.42,.29,.83,.43,1.31-.04,5.84-5.65,11.71-11.29,17.57-16.92,.55-.53,1.05-1.11,1.65-1.56,.87-.65,1.23-1.48,1.12-2.51-.17-1.58,.53-2.36,2-2.92,3.14-1.21,6.19-2.64,9.29-3.98,1.58-.68,3.21-.05,3.76,1.44,.56,1.53-.21,3.04-1.86,3.57-.92,.3-1.85,.59-2.79,.84-.97,.25-1.59,.84-1.88,1.78-.16,.52-.29,1.04-.45,1.56-.28,.86-.85,1.45-1.75,1.54-1.1,.11-1.86,.57-2.58,1.47-1.17,1.47-2.57,2.76-3.87,4.13-5.15,5.4-10.29,10.8-15.46,16.18-.38,.39-.42,.72-.28,1.2,.59,1.95,1.34,2.16,2.76,.73,.26-.26,.49-.55,.75-.81,.84-.84,2.13-.84,2.97,0,1.11,1.12,1.42,2.45,.88,3.94-.46,1.28-1.34,2.27-2.33,3.16-1.18,1.07-2.51,1.92-3.95,2.59-2.5,1.16-4.18,3.01-4.93,5.69-.18,.65-.38,1.29-.61,1.92-1.35,3.64-4.25,5.64-8.83,5.61Z"/><path class="uuid-d6013b7b-e285-45b6-b1a5-b187f6514d47" d="M385.45,38.78c-.58,.8-1.22,1.25-1.94,1.59-.45,.21-.92,.37-1.4,.5-2.78,.74-4.55,2.53-5.49,5.21-.41,1.16-.77,2.34-1.3,3.46-.29,.61-.63,1.19-1.16,1.63-.19,.16-.41,.35-.7,.19-.24-.13-.31-.35-.3-.6,.03-.84-.25-1.58-.73-2.25-.17-.24-.12-.41-.03-.65,.44-1.14,.23-2.17-.64-3.04-1.06-1.06-2.12-2.11-3.17-3.18-.83-.85-1.8-1.2-2.94-.8-.48,.17-.4-.19-.43-.4-.23-1.29,1.2-3.13,2.52-2.96,2.29,.3,4.06-.71,5.61-2.28,.78-.79,1.2-1.69,.95-2.82-.02-.08-.02-.17-.03-.26-.12-.86,.12-1.35,.74-1.49,.54-.13,1.18,.32,1.46,.97,.12,.28-.05,.39-.19,.55-.77,.82-.76,1.37,.03,2.17,.92,.92,1.84,1.84,2.76,2.76,.46,.46,.97,.65,1.58,.36,.17-.08,.29-.12,.46,.02,1.21,1.03,2.58,1.63,4.36,1.31Z"/><path class="uuid-d6013b7b-e285-45b6-b1a5-b187f6514d47" d="M366.5,41.96c.44,.02,.77,.21,1.05,.5,1.1,1.1,2.21,2.2,3.3,3.31,.64,.65,.64,1.43,.05,2.01-.59,.57-1.31,.57-1.95-.05-1.14-1.12-2.26-2.26-3.39-3.4-.42-.43-.54-.93-.29-1.49,.24-.54,.69-.81,1.24-.87Z"/><path class="uuid-23b368c7-3a08-4f35-b08e-9c30e1773a51" d="M392.1,23.91c0,.24-.11,.43-.32,.53-.25,.13-.52,.13-.73-.07-.76-.74-1.51-1.49-2.24-2.26-.24-.25-.2-.57,.04-.82,.26-.28,.6-.31,.87-.05,.77,.74,1.5,1.5,2.25,2.25,.11,.12,.13,.27,.13,.42Z"/><path class="uuid-6cfb64f6-9464-42d5-b71d-f8550cdee6f0" d="M388.01,27.97c-.03,.26-.12,.47-.35,.6-.24,.13-.48,.13-.66-.04-.79-.77-1.57-1.54-2.33-2.34-.23-.24-.15-.53,.06-.76,.21-.23,.5-.36,.75-.15,.89,.75,1.71,1.58,2.46,2.47,.05,.06,.05,.16,.08,.23Z"/><path class="uuid-23b368c7-3a08-4f35-b08e-9c30e1773a51" d="M393.41,16.97c.21,.04,.38,.12,.52,.27,.65,.66,1.31,1.31,1.97,1.97,.32,.31,.45,.66,.11,1.02-.34,.35-.69,.24-1.01-.08-.67-.67-1.34-1.34-2.01-2.02-.21-.21-.32-.46-.17-.76,.13-.26,.34-.37,.6-.4Z"/><path class="uuid-6cfb64f6-9464-42d5-b71d-f8550cdee6f0" d="M383.9,32.1c-.04,.29-.15,.49-.38,.6-.24,.12-.49,.1-.67-.07-.77-.75-1.54-1.51-2.28-2.29-.23-.24-.18-.57,.07-.82,.24-.24,.56-.31,.81-.07,.79,.76,1.56,1.55,2.32,2.33,.08,.08,.09,.23,.12,.32Z"/><path class="uuid-6cfb64f6-9464-42d5-b71d-f8550cdee6f0" d="M401.55,8.81c.26,0,.44,.13,.61,.31,.62,.63,1.25,1.26,1.88,1.89,.34,.34,.47,.7,.09,1.07-.36,.35-.71,.17-1.01-.15-.65-.66-1.31-1.32-1.97-1.98-.22-.22-.31-.47-.17-.77,.11-.24,.3-.36,.57-.37Z"/><path class="uuid-6cfb64f6-9464-42d5-b71d-f8550cdee6f0" d="M397.51,12.89c.21-.02,.37,.13,.53,.28,.64,.64,1.29,1.29,1.93,1.93,.31,.31,.48,.66,.13,1.02-.37,.38-.73,.23-1.07-.11-.64-.65-1.28-1.29-1.93-1.93-.24-.24-.33-.51-.19-.82,.1-.23,.3-.36,.6-.36Z"/></g><g><path d="M321.64,32.88c-5.95,0-11.91-.01-17.86,0-1.72,0-3.33-.34-4.84-1.16-.9-.49-1.84-.92-2.75-1.38-2-1.02-4.12-1.52-6.37-1.51-2.38,.02-4.76-.01-7.13,.01-.53,0-.7-.09-.55-.66,.35-1.35,.8-2.66,1.51-3.85,1.51-2.52,2.19-5.24,2.14-8.17-.05-3.28-.01-6.56-.01-9.85,0-2.02,1.06-3.08,3.06-3.09,6.94,0,13.89,0,20.83,0,2,0,3.06,1.07,3.07,3.08,0,1.03-.02,2.06,.01,3.09,.01,.43-.09,.57-.55,.56-1.58-.03-3.16-.03-4.73,0-1.08,.02-1.72,.89-1.39,1.81,.21,.57,.7,.89,1.45,.89,1.62,0,3.24,.02,4.86,0,.49-.01,.79,.08,.85,.62,.02,.21,.1,.41,.17,.61q.29,.91-.61,1.29c-1.31,.56-2.63,1.11-3.94,1.67-.89,.38-1.24,1.09-.91,1.84,.32,.75,1.08,1,1.96,.63,1.55-.65,3.09-1.29,4.63-1.97,.34-.15,.5-.11,.71,.2,.33,.48,.7,.94,1.1,1.38,.24,.26,.23,.41,0,.66-1.14,1.21-2.26,2.44-3.37,3.68-.73,.82-.42,1.98,.58,2.26,.6,.17,1.07-.07,1.46-.51,1.11-1.21,2.22-2.41,3.31-3.64,.27-.31,.46-.37,.82-.11,.48,.34,1,.64,1.54,.85,.46,.18,.47,.39,.34,.8-.43,1.45-.84,2.9-1.22,4.36-.18,.69,.21,1.35,.84,1.56,.66,.22,1.39-.1,1.68-.75,.07-.15,.11-.32,.15-.48,.38-1.33,.76-2.66,1.14-3.99,.06-.2,.04-.49,.4-.42,2.06,.41,4.15,.2,6.23,.24,1.8,.03,3.5,.42,5.07,1.3,3,1.67,4.83,4.21,5.51,7.59,.11,.56-.09,.56-.52,.56-6.23,0-12.46,0-18.68,0Z"/><path d="M311.38,40.96c-7.98,0-15.95,0-23.93,0-2.6,0-4.61-1.37-5.41-3.65-.2-.58-.3-1.18-.3-1.79-.02-1.18,0-2.36-.01-3.53,0-.34,.07-.47,.45-.47,2.78,.02,5.56-.02,8.33,.03,1.55,.03,3.02,.47,4.41,1.17,1.07,.54,2.15,1.05,3.21,1.6,1.66,.85,3.41,1.25,5.28,1.25,12.29,0,24.58,0,36.87,0q.77,0,.67,.77c-.34,2.7-2.64,4.62-5.57,4.63-6.29,0-12.58,0-18.88,0-1.7,0-3.41,0-5.11,0Z"/><path d="M340.87,41.7c.79,4.28-2.14,8.66-6.46,9.75-5.09,1.28-10.14-2.15-10.84-7.36-.05-.38,.03-.46,.39-.45,1.51,.02,3.03,.01,4.54,0,.32,0,.46,.07,.57,.4,.49,1.44,1.72,2.29,3.2,2.29,1.44,0,2.64-.86,3.16-2.27,.08-.21,.07-.42,.41-.43,1.87-.05,3.52-.69,5.02-1.93Z"/><path d="M281.85,41.67c1.11,.89,2.26,1.5,3.57,1.78,.54,.11,1.13,.05,1.61,.23,.48,.19,.44,.92,.79,1.33,.86,1.02,1.94,1.47,3.24,1.27,1.26-.2,2.15-.94,2.58-2.14,.16-.43,.35-.52,.76-.51,1.45,.02,2.9,.02,4.35,0,.34,0,.5,0,.44,.46-.59,4.29-4.2,7.54-8.48,7.61-4.37,.08-8.14-3.04-8.85-7.33-.08-.5-.1-1-.11-1.51,0-.37,.06-.74,.1-1.2Z"/><path d="M305.41,43.64c.36,0,.72,.03,1.07,0,.95-.09,1.62,0,2.1,1.1,.56,1.27,1.84,1.73,3.24,1.55,1.32-.17,2.24-.92,2.7-2.17,.14-.38,.29-.5,.69-.5,1.47,.03,2.94,.03,4.42,0,.39,0,.5,.08,.44,.49-.6,4.35-4.35,7.61-8.76,7.59-4.31-.02-8.08-3.35-8.62-7.61-.04-.34,0-.49,.39-.47,.78,.03,1.56,0,2.33,0Z"/></g><g><path class="uuid-3f84aae5-e6bd-4bdf-81af-845381bd8608" d="M180.07,126.76c.03-1.67-1.07-3.06-3.05-3.04-17.03-.03-33.03-.03-49.88,0-2.14-.03-3.04,1.63-3.14,2.79v50.33c.34,1.83,1.47,2.84,3.15,2.84,16.63,0,33.26,0,49.89,0,1.96,0,3.04-2.1,3.04-3.42-.01-16.39-.01-49.4,0-49.51Zm-26.05,22.62c-1.12,1.97-2.84,3.23-4.91,4.06-2.75,1.1-5.63,1.26-8.54,1.04-.42-.03-.48,.07-.48,.44,.01,3.35,0,6.71,.02,10.06,0,.41-.1,.51-.51,.5-1.97-.02-3.94-.03-5.91,0-.45,0-.52-.15-.52-.55,.01-4.9,0-9.81,0-14.71s0-9.81-.01-14.71c0-.4,.11-.52,.49-.58,3.37-.47,6.75-.62,10.14-.52,2.45,.07,4.86,.42,7.05,1.66,2.63,1.49,4.06,3.81,4.41,6.77,.27,2.29-.1,4.5-1.25,6.54Zm14.63,15.44c-2.36,1.09-4.85,1.22-7.38,1.03-1.79-.13-3.53-.51-5.17-1.27-.29-.13-.4-.25-.3-.61,.4-1.51,.76-3.03,1.14-4.59,1.4,.78,2.85,1.24,4.36,1.53,1.08,.21,2.17,.28,3.25-.04,.71-.21,1.24-.62,1.35-1.4,.12-.81-.22-1.42-.92-1.83-1.12-.66-2.39-.97-3.57-1.48-1.45-.63-2.79-1.41-3.83-2.64-1.87-2.2-1.58-5.3-.21-7.33,1.29-1.91,3.17-2.93,5.37-3.35,2.91-.56,5.76-.25,8.53,.83,.28,.11,.44,.19,.34,.57-.37,1.33-.72,2.67-1.04,4.01-.09,.36-.2,.37-.5,.23-1.53-.73-3.14-1.16-4.85-1.08-.52,.02-1.01,.13-1.46,.4-.99,.6-1.09,1.82-.21,2.57,.46,.39,1.02,.63,1.58,.85,1.32,.52,2.67,.95,3.91,1.65,1.64,.93,2.89,2.18,3.38,4.08,.84,3.29-.66,6.43-3.77,7.86Z"/><path class="uuid-3f84aae5-e6bd-4bdf-81af-845381bd8608" d="M145.57,140.07c-1.64-.6-3.33-.46-5.02-.22-.35,.05-.45,.17-.44,.51,.02,1.38,0,2.77,0,4.15s0,2.73,0,4.1c0,.3,.05,.44,.4,.48,1.36,.15,2.72,.16,4.07-.13,2.34-.52,3.78-2.19,3.86-4.56,.07-2.14-.86-3.59-2.87-4.33Z"/></g><g><path d="M52.21,56.75H4.08c-2.04,0-4.08,0-4.08-2.79C0,37.49,0,22.21,0,5.74c0-2.04,2.04-3.96,3.53-3.97,16.88-.11,31.97,0,47.95,0,2.08,0,3.52,1.44,3.52,3.52,0,15.98,0,31.96-.02,47.94,.12,3.53-1.84,3.22-2.77,3.53Zm-16.89-12.92c-.01-.13,0-.18-.02-.23-2.83-9.13-5.67-18.26-8.49-27.39-.11-.35-.3-.37-.59-.37-2.49,0-4.98,0-7.47,0-.12,0-.24,.02-.38,.03-2.85,9.31-5.68,18.59-8.52,27.87,.1,.05,.13,.08,.16,.08,2.02,0,4.05,.01,6.07,0,.13,0,.33-.18,.38-.32,.16-.45,.27-.92,.4-1.39,.5-1.81,1-3.61,1.52-5.45h.55c2.31,0,4.62,.01,6.93-.01,.41,0,.58,.12,.69,.52,.6,2.08,1.23,4.14,1.87,6.21,.06,.18,.26,.44,.4,.44,2.15,.03,4.29,.02,6.49,.02Zm3.38-20.26v20.26h.56c1.7,0,3.4-.02,5.1,.01,.48,0,.64-.11,.63-.62-.02-6.37-.01-12.73-.01-19.1,0-.17,0-.35,0-.56h-6.28Zm3.05-2.54c1.95,.02,3.37-1.27,3.41-3.08,.04-1.85-1.35-3.21-3.31-3.25-1.95-.04-3.36,1.29-3.37,3.17,0,1.83,1.35,3.14,3.26,3.16Z"/><path d="M22.29,21.07c1.04,3.69,2.09,7.42,3.14,11.19h-6.08c.99-3.77,1.97-7.51,2.94-11.19Z"/></g><g><path d="M208.02,4.49c1.05-2.4,2.4-3.09,4.9-2.44,2.19,.57,4.21,1.51,5.93,3.01,.54,.47,1.11,.68,1.84,.69,3.08,.05,5.89,.93,8.52,2.57,5.6,3.47,10.19,7.9,13.6,13.55,1.02,1.69,1.64,3.55,2.42,5.34,1.21,2.78,2.61,5.46,3.89,8.2,.41,.88,1.01,1.48,1.99,1.84,4.17,1.51,7.67,4.11,10.97,7,.7,.61,1.16,1.44,1.77,2.12,.28,.31,.09,.46-.26,.58-1.4,.48-2.85,.69-4.31,.85-1.3,.14-2.49,.7-3.81,.85,.21,.66,.67,1.07,1.16,1.46,.71,.56,1.49,1.01,2.28,1.46,1.9,1.07,3.47,2.52,4.84,4.19,.23,.28,.44,.58,.72,.79,.69,.54,1.08,1.29,1.45,2.04v.11c-.22-.02-.38-.16-.53-.3-1.88-1.75-4.05-3.03-6.37-4.1-2.2-1.02-4.2-2.34-5.74-4.28-.49-.61-.79-1.32-1.11-2.02-.18-.39,.17-.61,.47-.7,1.51-.5,3-1.1,4.61-1.27,1.2-.13,2.4-.21,3.61-.19,.14,0,.34,.08,.41-.07,.08-.18-.1-.31-.21-.42-.23-.22-.47-.44-.73-.62-1.66-1.14-3.32-2.27-5-3.39-1.44-.97-3.08-1.52-4.73-1.92-1.89-.46-3.11-1.53-3.89-3.25-1.6-3.5-3.32-6.95-4.78-10.51-1.32-3.2-3.29-6-5.58-8.57-3.19-3.57-6.92-6.42-11.34-8.31-1.25-.53-2.53-.85-3.88-.85-.76,0-1.5-.17-2.25-.16-.49,0-.85-.36-1.2-.68-1.71-1.52-3.79-2.34-5.92-3.05-.59-.2-1.2-.16-1.63,.3-.46,.5-.33,1.11-.08,1.7,.34,.81,.87,1.49,1.4,2.18,1.24,1.61,2.55,3.18,3.24,5.13,.55,1.56,1.04,3.14,1.59,4.7,.61,1.73,1.39,3.37,2.79,4.64,.58,.54,.74,1.22,.55,2.02-.22,.9-.59,1.75-.86,2.62-1.29,4.14-1.12,8.2,.76,12.14,.26,.55,.63,1.03,1.19,1.32,.37,.19,.57,.18,.62-.31,.13-1.25,.28-2.51,.49-3.75,.29-1.71,1.23-3.05,2.32-4.32,.16-.19,.26-.11,.32,.04,.12,.27,.2,.56,.31,.84,1.98,4.92,4.47,9.53,8.09,13.47,.15,.17,.34,.3,.51,.45,.16,.15,.4,.22,.48,.51-.26,0-.44-.15-.57-.28-2.14-2.09-4.65-3.78-6.5-6.18-.85-1.1-1.32-2.4-1.98-3.6-.12-.21-.22-.43-.46-.64-.15,.89-.31,1.77-.45,2.66-.09,.56-.13,1.12-.3,1.66-.51,1.66-2.13,2.26-3.58,1.3-1.07-.71-1.76-1.75-2.3-2.88-1.24-2.59-1.59-5.35-1.46-8.2,.09-2.15,.79-4.17,1.25-6.24,.03-.13,.08-.25,.13-.37,.33-.82,.3-.87-.3-1.5-1.16-1.22-1.86-2.73-2.48-4.26-.71-1.74-1.36-3.5-1.84-5.32-.22-.84-.69-1.54-1.2-2.22-.69-.92-1.37-1.84-2.09-2.74-.73-.92-1.26-1.94-1.66-3.03v-1.36Z"/><path class="uuid-5d3fbcf9-9d8b-4013-ac7d-12ead6a728bb" d="M220.77,11.6c.56-.1,.9,.3,1.21,.61,.97,.96,.99,1.91,.13,2.92-.15,.18-.29,.28-.43-.05-.42-1.03-.99-1.97-1.75-2.79-.42-.45-.37-.49,.23-.6,.2-.04,.41-.06,.61-.08Z"/></g><path d="M171.22,1.69s-6.44,9.96-7.66,11.72c-1.22-1.77-7.66-11.72-7.66-11.72h-24.9s21.87,37.5,32.56,56C174.24,39.19,196.12,1.69,196.12,1.69h-24.9Zm-26.46,1.28l10.48-.09c.66,.96,8.33,13.13,8.33,13.13,0,0,7.67-12.17,8.33-13.13l10.48,.09c-3.54,6.16-18.8,32.58-18.8,32.58,0,0-15.27-26.42-18.8-32.58Z"/></svg>