<?xml version="1.0" encoding="UTF-8"?><svg id="Capa_1" xmlns="http://www.w3.org/2000/svg" viewBox="0 0 61 54.5"><path d="M28.62,48.15c.12,.66,.25,1.27,.34,1.88,.17,1.14-.64,2.12-1.8,2.12-7.87,0-15.73,0-23.6,0-1.12,0-1.91-.86-1.79-2.01,.28-2.79,1.38-5.24,3.2-7.36,1.84-2.14,3.52-3.16,7.11-4.41-1.74-1.26-2.7-2.94-2.67-5.09,.02-1.66,.66-3.08,1.88-4.23,2.37-2.25,6.11-2.15,8.37,.19,2.09,2.17,2.64,6.42-.97,9.14,.35,.11,.69,.21,1.02,.33,.19,.07,.32,.02,.44-.13,1.86-2.11,4.16-3.5,6.96-4.23-1.75-1.31-2.7-2.96-2.67-5.1,.03-1.67,.66-3.09,1.87-4.23,2.41-2.26,6.13-2.12,8.41,.26,2.03,2.12,2.56,6.37-1.02,9.08,.5,.16,.98,.29,1.45,.47,1.99,.75,3.74,1.88,5.17,3.46,.35,.39,.65,.56,1.14,.3,.18-.1,.39-.12,.66-.2-1.86-1.38-2.82-3.17-2.65-5.47,.12-1.62,.81-2.97,2.03-4.04,2.5-2.19,6.31-1.89,8.46,.69,2.13,2.56,1.9,6.52-1.28,8.8,.5,.17,.97,.3,1.42,.48,4.98,1.97,7.92,5.6,8.86,10.87,.29,1.64-.8,2.47-2.14,2.46-7.62-.05-15.24-.02-22.86-.02-1.63,0-2.34-.82-2.11-2.44,.04-.26,.08-.52,.13-.78q.16-.79-.67-.79c-.89,0-1.77,0-2.67,0Z"/><path d="M25.35,1.75c5.37,0,10.74,0,16.11,0,2.03,0,3.16,1.12,3.17,3.15,0,.78,.04,1.55-.01,2.33-.03,.5,.15,.57,.6,.57,2.69-.02,5.37-.01,8.06-.01,1.77,0,2.85,1.08,2.85,2.87,0,2.63,0,5.26,0,7.89,0,1.82-1.06,2.87-2.89,2.87-.43,0-.87,.04-1.3-.01-.5-.06-.6,.15-.57,.6,.04,.58,0,1.17,.01,1.76,.02,.58-.14,1.05-.71,1.29-.58,.24-1.01-.01-1.42-.41-.99-.97-2-1.91-2.97-2.88-.26-.26-.53-.35-.9-.35-6.94,0-13.88-.03-20.82,.03-1.9,.02-3.12-1.29-3.01-3.01,.03-.5,.22-1.17-.08-1.47-.3-.31-3.42-.28-4.06-.02-.63,.26-1.09,.96-1.62,1.47-.75,.72-1.5,1.44-2.25,2.17-.41,.4-.88,.61-1.43,.35-.53-.24-.71-.68-.7-1.25,.02-.81,0-1.63,.01-2.44,0-.3-.08-.39-.38-.39-.68,.02-1.36,.01-2.04,0-1.72-.02-2.91-1.21-2.91-2.94,0-3.08,0-6.17,0-9.25,0-1.73,1.2-2.91,2.93-2.92,5.45,0,10.89,0,16.34,0Z"/></svg>