<?xml version="1.0" encoding="UTF-8"?><svg id="Capa_1" xmlns="http://www.w3.org/2000/svg" viewBox="0 0 61 59.5"><path d="M40.64,31.19c-5.95,0-11.91-.01-17.86,0-1.72,0-3.33-.34-4.84-1.16-.9-.49-1.84-.92-2.75-1.38-2-1.02-4.12-1.52-6.37-1.51-2.38,.02-4.76-.01-7.13,.01-.53,0-.7-.09-.55-.66,.35-1.35,.8-2.66,1.51-3.85,1.51-2.52,2.19-5.24,2.14-8.17-.05-3.28-.01-6.56-.01-9.85,0-2.02,1.06-3.08,3.06-3.09,6.94,0,13.89,0,20.83,0,2,0,3.06,1.07,3.07,3.08,0,1.03-.02,2.06,.01,3.09,.01,.43-.09,.57-.55,.56-1.58-.03-3.16-.03-4.73,0-1.08,.02-1.72,.89-1.39,1.81,.21,.57,.7,.89,1.45,.89,1.62,0,3.24,.02,4.86,0,.49-.01,.79,.08,.85,.62,.02,.21,.1,.41,.17,.61q.29,.91-.61,1.29c-1.31,.56-2.63,1.11-3.94,1.67-.89,.38-1.24,1.09-.91,1.84,.32,.75,1.08,1,1.96,.63,1.55-.65,3.09-1.29,4.63-1.97,.34-.15,.5-.11,.71,.2,.33,.48,.7,.94,1.1,1.38,.24,.26,.23,.41,0,.66-1.14,1.21-2.26,2.44-3.37,3.68-.73,.82-.42,1.98,.58,2.26,.6,.17,1.07-.07,1.46-.51,1.11-1.21,2.22-2.41,3.31-3.64,.27-.31,.46-.37,.82-.11,.48,.34,1,.64,1.54,.85,.46,.18,.47,.39,.34,.8-.43,1.45-.84,2.9-1.22,4.36-.18,.69,.21,1.35,.84,1.56,.66,.22,1.39-.1,1.68-.75,.07-.15,.11-.32,.15-.48,.38-1.33,.76-2.66,1.14-3.99,.06-.2,.04-.49,.4-.42,2.06,.41,4.15,.2,6.23,.24,1.8,.03,3.5,.42,5.07,1.3,3,1.67,4.83,4.21,5.51,7.59,.11,.56-.09,.56-.52,.56-6.23,0-12.46,0-18.68,0Z"/><path d="M30.38,39.27c-7.98,0-15.95,0-23.93,0-2.6,0-4.61-1.37-5.41-3.65-.2-.58-.3-1.18-.3-1.79-.02-1.18,0-2.36-.01-3.53,0-.34,.07-.47,.45-.47,2.78,.02,5.56-.02,8.33,.03,1.55,.03,3.02,.47,4.41,1.17,1.07,.54,2.15,1.05,3.21,1.6,1.66,.85,3.41,1.25,5.28,1.25,12.29,0,24.58,0,36.87,0q.77,0,.67,.77c-.34,2.7-2.64,4.62-5.57,4.63-6.29,0-12.58,0-18.88,0-1.7,0-3.41,0-5.11,0Z"/><path d="M59.87,40.01c.79,4.28-2.14,8.66-6.46,9.75-5.09,1.28-10.14-2.15-10.84-7.36-.05-.38,.03-.46,.39-.45,1.51,.02,3.03,.01,4.54,0,.32,0,.46,.07,.57,.4,.49,1.44,1.72,2.29,3.2,2.29,1.44,0,2.64-.86,3.16-2.27,.08-.21,.07-.42,.41-.43,1.87-.05,3.52-.69,5.02-1.93Z"/><path d="M.85,39.98c1.11,.89,2.26,1.5,3.57,1.78,.54,.11,1.13,.05,1.61,.23,.48,.19,.44,.92,.79,1.33,.86,1.02,1.94,1.47,3.24,1.27,1.26-.2,2.15-.94,2.58-2.14,.16-.43,.35-.52,.76-.51,1.45,.02,2.9,.02,4.35,0,.34,0,.5,0,.44,.46-.59,4.29-4.2,7.54-8.48,7.61-4.37,.08-8.14-3.04-8.85-7.33-.08-.5-.1-1-.11-1.51,0-.37,.06-.74,.1-1.2Z"/><path d="M24.41,41.95c.36,0,.72,.03,1.07,0,.95-.09,1.62,0,2.1,1.1,.56,1.27,1.84,1.73,3.24,1.55,1.32-.17,2.24-.92,2.7-2.17,.14-.38,.29-.5,.69-.5,1.47,.03,2.94,.03,4.42,0,.39,0,.5,.08,.44,.49-.6,4.35-4.35,7.61-8.76,7.59-4.31-.02-8.08-3.35-8.62-7.61-.04-.34,0-.49,.39-.47,.78,.03,1.56,0,2.33,0Z"/></svg>